# xmcd CD database file
#
# Track frame offsets:
#	183
#	11788
#	25060
#	40820
#	53633
#	67523
#	79285
#	89335
#	99835
#	107043
#	119048
#	128193
#
# Disc length: 1879 seconds
#
# Revision: 2
# Processed by: cddbd v1.5.1PL2 Copyright (c) Steve Scherf et al.
# Submitted via: CDex 1.51
#
DISCID=9107550c
DTITLE=Sonny Boy Williamson - Little Boy Blue
DYEAR=1989
DGENRE=Blues
TTITLE0=Born Blind
TTITLE1=Work With Me
TTITLE2=You Killing Me
TTITLE3=Keep It To Yourself
TTITLE4=Don't Lose Your Eye
TTITLE5=Good Evening Everybody
TTITLE6=Too Close Together
TTITLE7=Let Your Conscience Be Your Guide
TTITLE8=I Wonder Why
TTITLE9=This is My Apartment
TTITLE10=One Way Out
TTITLE11=Like A Wolf
EXTD=YEAR: 1989
EXTT0=
EXTT1=
EXTT2=
EXTT3=
EXTT4=
EXTT5=
EXTT6=
EXTT7=
EXTT8=
EXTT9=
EXTT10=
EXTT11=
PLAYORDER=
